{"title":"The.Increasingly.Poor.Decisions.of.Todd.Margaret.S03E02.WEB-DL.x","uid":13185393,"size":170418292,"categoryP":"video","categoryS":"tv_shows","magnet":"?xt=urn:btih:fe26697e3d318bbc4f0f60f8ef3a4164ce89446a&amp;dn=The.Increasingly.Poor.Decisions.of.Todd.Margaret.S03E02.WEB-DL.x&amp;tr=udp%3A%2F%2Ftracker.leechers-paradise.org%3A6969&amp;tr=udp%3A%2F%2Fzer0day.ch%3A1337&amp;tr=udp%3A%2F%2Fopen.demonii.com%3A1337&amp;tr=udp%3A%2F%2Ftracker.coppersurfer.tk%3A6969&amp;tr=udp%3A%2F%2Fexodus.desync.com%3A6969","seeders":1,"leechers":0,"uploader":null,"files":5,"time":1452374504,"description":"Video\r\nID                                       : 1\r\nFormat                                   : AVC\r\nFormat/Info                              : Advanced Video Codec\r\nFormat profile                           :   \r\nFormat settings, CABAC                   : Yes\r\nFormat settings, ReFrames                : 5 frames\r\nCodec ID                                 : avc1\r\nCodec ID/Info                            : Advanced Video Coding\r\nDuration                                 : 22mn 29s\r\nBit rate                                 : 869 Kbps\r\nWidth                                    : 720 pixels\r\nHeight                                   : 400 pixels\r\nDisplay aspect ratio                     : 16:9\r\nOriginal display aspect ratio            : 16:9\r\nFrame rate mode                          : Constant\r\nFrame rate                               : 23.976 (24000/1001) fps\r\nColor space                              : YUV\r\nChroma subsampling                       : 4:2:0\r\nBit depth                                : 8 bits\r\nScan type                                : Progressive\r\nBits/(Pixel*Frame)                       : 0.126\r\nStream size                              : 140 MiB (87%)\r\nTitle                                    : RARBG.COM - The.Increasingly.Poor.Decisions.of.Todd.Margaret.S03E02.WEB-DL.x264-RARBG\r\nWriting library                          : x264 core 148 r2597M e86f3a1\r\nEncoding settings                        : cabac=1 / ref=5 / deblock=1:-1:-1 / analyse=0x3:0x113 / me=umh / subme=9 / psy=1 / psy_rd=1.00:0.15 / mixed_ref=1 / me_range=16 / chroma_me=1 / trellis=2 / 8x8dct=1 / cqm=0 / deadzone=21,11 / fast_pskip=1 / chroma_qp_offset=-3 / threads=12 / lookahead_threads=1 / sliced_threads=0 / nr=0 / decimate=1 / interlaced=0 / bluray_compat=0 / constrained_intra=0 / bframes=3 / b_pyramid=2 / b_adapt=2 / b_bias=0 / direct=3 / weightb=1 / open_gop=0 / weightp=2 / keyint=250 / keyint_min=23 / scenecut=40 / intra_refresh=0 / rc_lookahead=50 / rc=crf / mbtree=1 / crf=19.0 / qcomp=0.60 / qpmin=0 / qpmax=69 / qpstep=4 / ip_ratio=1.40 / aq=1:1.00\r\nLanguage                                 : English\r\nEncoded date                             : UTC 2016-01-09 02:46:52\r\nTagged date                              : UTC 2016-01-09 02:46:52\r\n\r\nAudio\r\nID                                       : 2\r\nFormat                                   : AAC\r\nFormat/Info                              : Advanced Audio Codec\r\nFormat profile                           : LC\r\nCodec ID                                 : 40\r\nDuration                                 : 22mn 29s\r\nBit rate mode                            : Constant\r\nBit rate                                 : 128 Kbps\r\nChannel(s)                               : 2 channels\r\nChannel positions                        : Front: L R\r\nSampling rate                            : 48.0 KHz\r\nFrame rate                               : 46.875 fps (1024 spf)\r\nCompression mode                         : Lossy\r\nStream size                              : 20.6 MiB (13%)\r\nTitle                                    : RARBG.COM - The.Increasingly.Poor.Decisions.of.Todd.Margaret.S03E02.WEB-DL.x264-RARBG\r\nLanguage                                 : English\r\nDefault                                  : Yes\r\nAlternate group                          : 1\r\nEncoded date                             : UTC 2016-01-09 02:46:52\r\nTagged date                              : UTC 2016-01-09 02:46:52","torrent":{"xt":"urn:btih:fe26697e3d318bbc4f0f60f8ef3a4164ce89446a","amp;dn":"The.Increasingly.Poor.Decisions.of.Todd.Margaret.S03E02.WEB-DL.x","amp;tr":["udp%3A%2F%2Ftracker.leechers-paradise.org%3A6969","udp%3A%2F%2Fzer0day.ch%3A1337","udp%3A%2F%2Fopen.demonii.com%3A1337","udp%3A%2F%2Ftracker.coppersurfer.tk%3A6969","udp%3A%2F%2Fexodus.desync.com%3A6969"],"infoHash":"fe26697e3d318bbc4f0f60f8ef3a4164ce89446a","infoHashBuffer":{"type":"Buffer","data":[254,38,105,126,61,49,139,188,79,15,96,248,239,58,65,100,206,137,68,106]},"announce":[],"urlList":[]}}